<?xml version="1.0" encoding="utf-8"?>
<!-- Generator: Adobe Illustrator 28.1.0, SVG Export Plug-In . SVG Version: 6.00 Build 0)  -->
<svg version="1.1" id="Layer_1" xmlns="http://www.w3.org/2000/svg" xmlns:xlink="http://www.w3.org/1999/xlink" x="0px" y="0px"
	 viewBox="0 0 1080 1080" style="enable-background:new 0 0 1080 1080;" xml:space="preserve">
<style type="text/css">
	.st0{display:none;}
	.st1{display:inline;}
	.st2{fill:none;stroke:#FFFFFF;stroke-width:20;stroke-linecap:round;stroke-miterlimit:10;}
	.st3{fill:#FFFFFF;stroke:#FFFFFF;stroke-width:5;stroke-linecap:round;stroke-miterlimit:10;}
	.st4{fill:#FFFFFF;stroke:#FFFFFF;stroke-width:5;stroke-miterlimit:10;}
	.st5{fill:none;stroke:#FFFFFF;stroke-width:20;stroke-miterlimit:10;}
	.st6{fill:none;stroke:#000000;stroke-width:8;stroke-linecap:round;stroke-miterlimit:10;}
	.st7{fill:none;stroke:#FFFFFF;stroke-width:40;stroke-miterlimit:10;}
	.st8{display:inline;fill:none;stroke:#FFFFFF;stroke-width:20;stroke-linecap:round;stroke-miterlimit:10;}
	.st9{fill:#FFFFFF;stroke:#FFFFFF;stroke-width:5;stroke-linecap:round;stroke-linejoin:round;stroke-miterlimit:10;}
	.st10{fill:#FFFFFF;stroke:#FFFFFF;stroke-width:5;stroke-linejoin:round;stroke-miterlimit:10;}
	.st11{display:inline;fill:none;stroke:#FFFFFF;stroke-width:20;stroke-linejoin:round;stroke-miterlimit:10;}
	.st12{fill:none;stroke:#FFFFFF;stroke-width:20;stroke-linejoin:round;stroke-miterlimit:10;}
</style>
<g id="Layer_12" class="st0">
	<rect class="st1" width="1080" height="1080"/>
</g>
<g id="upright" class="st0">
	<g class="st1">
		<polyline class="st2" points="672.9,741.1 733.7,309.7 895,337.3 907.1,209.7 621.3,168.3 		"/>
		<path class="st2" d="M407.1,741.1"/>
		<polyline class="st2" points="407.1,741.1 346.3,309.7 185,337.3 172.9,209.7 458.7,168.3 		"/>
		<g>
			<polyline class="st3" points="539.8,55.5 620.8,169.2 588,724.2 539.7,735.9 			"/>
			<path class="st4" d="M539.7,55.5"/>
			<polyline class="st4" points="588,724.2 672.4,742.1 588,724.2 703.3,748.6 680.7,816.7 539.7,821.4 			"/>
			<line class="st5" x1="578.7" y1="821.5" x2="578.7" y2="965.5"/>
		</g>
		<g>
			<polyline class="st4" points="539.8,735.9 491.5,724.2 458.7,169.2 539.8,55.5 			"/>
			<path class="st4" d="M539.8,55.5"/>
			<polyline class="st4" points="539.8,821.4 398.8,816.7 376.2,748.6 491.5,724.2 407.1,742.1 491.5,724.2 			"/>
			<line class="st5" x1="500.7" y1="821.5" x2="500.7" y2="965.5"/>
		</g>
		<line class="st6" x1="539.8" y1="55.5" x2="539.8" y2="741.1"/>
		<circle class="st7" cx="540.2" cy="982.2" r="42.3"/>
	</g>
</g>
<g id="Layer_1_copy_7_00000144296035597742984720000003875053097500340922_" class="st0">
	<g class="st1">
		<polyline class="st2" points="407.1,338.9 346.3,770.3 185,742.7 172.9,870.3 458.7,911.7 		"/>
		<path class="st2" d="M672.9,338.9"/>
		<polyline class="st2" points="672.9,338.9 733.7,770.3 895,742.7 907.1,870.3 621.3,911.7 		"/>
		<g>
			<polyline class="st3" points="540.2,1024.5 459.2,910.8 492,355.8 540.3,344.1 			"/>
			<path class="st4" d="M540.3,1024.5"/>
			<polyline class="st4" points="492,355.8 407.6,337.9 492,355.8 376.7,331.4 399.3,263.3 540.3,258.6 			"/>
			<line class="st5" x1="501.3" y1="258.5" x2="501.3" y2="114.5"/>
		</g>
		<g>
			<polyline class="st4" points="540.2,344.1 588.5,355.8 621.3,910.8 540.2,1024.5 			"/>
			<path class="st4" d="M540.2,1024.5"/>
			<polyline class="st4" points="540.2,258.6 681.2,263.3 703.8,331.4 588.5,355.8 672.9,337.9 588.5,355.8 			"/>
			<line class="st5" x1="579.3" y1="258.5" x2="579.3" y2="114.5"/>
		</g>
		<line class="st6" x1="540.2" y1="1024.5" x2="540.2" y2="338.9"/>
		<circle class="st7" cx="539.8" cy="97.8" r="42.3"/>
	</g>
</g>
<g id="down_-1" class="st0">
	<g class="st1">
		<path class="st2" d="M672.9,338.9"/>
		<g>
			<polyline class="st3" points="540.2,1024.5 459.2,910.8 492,355.8 540.3,344.1 			"/>
			<path class="st4" d="M540.3,1024.5"/>
			<polyline class="st4" points="492,355.8 407.6,337.9 492,355.8 376.7,331.4 399.3,263.3 540.3,258.6 			"/>
			<line class="st5" x1="501.3" y1="258.5" x2="501.3" y2="114.5"/>
		</g>
		<g>
			<polyline class="st4" points="540.2,344.1 588.5,355.8 621.3,910.8 540.2,1024.5 			"/>
			<path class="st4" d="M540.2,1024.5"/>
			<polyline class="st4" points="540.2,258.6 681.2,263.3 703.8,331.4 588.5,355.8 672.9,337.9 588.5,355.8 			"/>
			<line class="st5" x1="579.3" y1="258.5" x2="579.3" y2="114.5"/>
		</g>
		<line class="st6" x1="540.2" y1="1024.5" x2="540.2" y2="338.9"/>
		<circle class="st7" cx="539.8" cy="97.8" r="42.3"/>
	</g>
	<path class="st8" d="M621.3,910.8l119.3-21.9c1-0.2,1.8-1.2,1.6-2.2l-51.4-420.4c-0.1-1,0.5-2,1.5-2.2l188-43.2
		c0.9-0.2,1.6-1,1.6-1.9V297.2c0-1.3-1.2-2.2-2.4-2l-175.7,36.1l-115.3,24.4"/>
	<path class="st8" d="M464.7,910.8l-119.3-21.9c-1-0.2-1.8-1.2-1.6-2.2l51.4-420.4c0.1-1-0.5-2-1.5-2.2l-188-43.2
		c-0.9-0.2-1.6-1-1.6-1.9V297.2c0-1.3,1.2-2.2,2.4-2l175.7,36.1l115.3,24.4"/>
</g>
<g id="down_-2" class="st0">
	<g class="st1">
		<path class="st2" d="M672.9,338.9"/>
		<g>
			<polyline class="st3" points="540.2,1024.5 459.2,910.8 492,355.8 540.3,344.1 			"/>
			<path class="st4" d="M540.3,1024.5"/>
			<polyline class="st4" points="492,355.8 407.6,337.9 492,355.8 376.7,331.4 399.3,263.3 540.3,258.6 			"/>
			<line class="st5" x1="501.3" y1="258.5" x2="501.3" y2="114.5"/>
		</g>
		<g>
			<polyline class="st4" points="540.2,344.1 588.5,355.8 621.3,910.8 540.2,1024.5 			"/>
			<path class="st4" d="M540.2,1024.5"/>
			<polyline class="st4" points="540.2,258.6 681.2,263.3 703.8,331.4 588.5,355.8 672.9,337.9 588.5,355.8 			"/>
			<line class="st5" x1="579.3" y1="258.5" x2="579.3" y2="114.5"/>
		</g>
		<line class="st6" x1="540.2" y1="1024.5" x2="540.2" y2="338.9"/>
		<circle class="st7" cx="539.8" cy="97.8" r="42.3"/>
	</g>
	<path class="st8" d="M621.3,910.8l116.8-21.4c2.5-0.5,4.3-2.7,4.1-5.3l-32-419.7c-0.2-2.5,1.5-4.7,3.9-5.3l164-37.7
		c2.3-0.5,3.9-2.5,3.9-4.9V300.9c0-3.2-2.9-5.5-6-4.9l-172.1,35.4l-115.3,24.4"/>
	<path class="st8" d="M464.7,910.8l-116.8-21.4c-2.5-0.5-4.3-2.7-4.1-5.3l32-419.7c0.2-2.5-1.5-4.7-3.9-5.3l-164-37.7
		c-2.3-0.5-3.9-2.5-3.9-4.9V300.9c0-3.2,2.9-5.5,6-4.9l172.1,35.4l115.3,24.4"/>
</g>
<g id="down_-1_copy" class="st0">
	<g class="st1">
		<path class="st2" d="M672.9,338.9"/>
		<g>
			<polyline class="st9" points="535.2,1024.5 454.2,910.8 487,355.8 535.3,344.1 535.3,1024.5 			"/>
			<path class="st4" d="M535.3,1024.5"/>
			<path class="st9" d="M487,355.8l-84.4-17.9L487,355.8l-115.3-24.4l21.5-64.8c0.7-2,2.5-3.4,4.6-3.4l142-4.7L487,355.8z"/>
			<line class="st5" x1="496.3" y1="258.5" x2="496.3" y2="114.5"/>
		</g>
		<g>
			<polyline class="st9" points="545.2,1024.5 545.2,344.1 593.5,355.8 626.3,910.8 545.2,1024.5 			"/>
			<path class="st4" d="M545.2,1024.5"/>
			<path class="st10" d="M593.5,355.7l-53.7-97.2l142.9,4.7c2.1,0.1,3.9,1.4,4.6,3.4l21.5,64.8L593.5,355.7l84.4-17.8L593.5,355.7"
				/>
			<line class="st5" x1="584.3" y1="258.5" x2="584.3" y2="114.5"/>
		</g>
		<circle class="st7" cx="539.8" cy="97.8" r="42.3"/>
	</g>
	<path class="st11" d="M616.3,912.6l129.3-23.7c1-0.2,1.8-1.2,1.6-2.2l-51.4-420.4c-0.1-1,0.5-2,1.5-2.2l188-43.2
		c0.9-0.2,1.6-1,1.6-1.9V297.2c0-1.3-1.2-2.2-2.4-2l-175.7,36.1l-115.3,24.4"/>
	<path class="st11" d="M459.7,910.8l-119.3-21.9c-1-0.2-1.8-1.2-1.6-2.2l51.4-420.4c0.1-1-0.5-2-1.5-2.2l-188-43.2
		c-0.9-0.2-1.6-1-1.6-1.9V297.2c0-1.3,1.2-2.2,2.4-2l175.7,36.1L487,355.8"/>
</g>
<g id="down_-2_copy" class="st0">
	<g class="st1">
		<path class="st2" d="M672.9,338.9"/>
		<g>
			<polyline class="st3" points="540.2,1024.5 459.2,910.8 492,355.8 540.3,344.1 			"/>
			<path class="st4" d="M540.3,1024.5"/>
			<polyline class="st4" points="492,355.8 407.6,337.9 492,355.8 376.7,331.4 399.3,263.3 540.3,258.6 			"/>
			<line class="st5" x1="501.3" y1="258.5" x2="501.3" y2="114.5"/>
		</g>
		<g>
			<polyline class="st4" points="540.2,344.1 588.5,355.8 621.3,910.8 540.2,1024.5 			"/>
			<path class="st4" d="M540.2,1024.5"/>
			<polyline class="st4" points="540.2,258.6 681.2,263.3 703.8,331.4 588.5,355.8 672.9,337.9 588.5,355.8 			"/>
			<line class="st5" x1="579.3" y1="258.5" x2="579.3" y2="114.5"/>
		</g>
		<line class="st6" x1="540.2" y1="1024.5" x2="540.2" y2="338.9"/>
		<circle class="st7" cx="539.8" cy="97.8" r="42.3"/>
	</g>
	<path class="st8" d="M621.3,910.8l116.8-21.4c2.5-0.5,4.3-2.7,4.1-5.3l-32-419.7c-0.2-2.5,1.5-4.7,3.9-5.3l164-37.7
		c2.3-0.5,3.9-2.5,3.9-4.9V300.9c0-3.2-2.9-5.5-6-4.9l-172.1,35.4l-115.3,24.4"/>
	<path class="st8" d="M464.7,910.8l-116.8-21.4c-2.5-0.5-4.3-2.7-4.1-5.3l32-419.7c0.2-2.5-1.5-4.7-3.9-5.3l-164-37.7
		c-2.3-0.5-3.9-2.5-3.9-4.9V300.9c0-3.2,2.9-5.5,6-4.9l172.1,35.4l115.3,24.4"/>
</g>
<g id="down_-3">
	<g>
		<path class="st2" d="M669.9,338.9"/>
		<g>
			<polyline class="st9" points="532.2,1024.5 451.2,910.8 484,355.8 532.3,344.1 532.3,1024.5 			"/>
			<path class="st4" d="M532.3,1024.5"/>
			<path class="st9" d="M484,355.8l-84.4-17.9L484,355.8l-115.3-24.4l21.5-64.8c0.7-2,2.5-3.4,4.6-3.4l142-4.7L484,355.8z"/>
			<line class="st5" x1="493.3" y1="258.5" x2="493.3" y2="114.5"/>
		</g>
		<g>
			<polyline class="st9" points="542.2,1024.5 542.2,344.1 590.5,355.8 623.3,910.8 542.2,1024.5 			"/>
			<path class="st4" d="M542.2,1024.5"/>
			<path class="st10" d="M590.5,355.7l-53.7-97.2l142.9,4.7c2.1,0.1,3.9,1.4,4.6,3.4l21.5,64.8L590.5,355.7l84.4-17.8L590.5,355.7"
				/>
			<line class="st5" x1="581.3" y1="258.5" x2="581.3" y2="114.5"/>
		</g>
		<circle class="st7" cx="536.8" cy="97.8" r="42.3"/>
	</g>
	<path class="st12" d="M613.3,912.6l129.3-23.7c1-0.2,1.8-1.2,1.6-2.2l-51.4-420.4c-0.1-1,0.5-2,1.5-2.2l188-43.2
		c0.9-0.2,1.6-1,1.6-1.9V297.2c0-1.3-1.2-2.2-2.4-2l-175.7,36.1l-115.3,24.4"/>
	<path class="st2" d="M743.9,884.1l-36.7-419.7"/>
	<path class="st12" d="M456.7,910.8l-119.3-21.9c-1-0.2-1.8-1.2-1.6-2.2l51.4-420.4c0.1-1-0.5-2-1.5-2.2l-188-43.2
		c-0.9-0.2-1.6-1-1.6-1.9V297.2c0-1.3,1.2-2.2,2.4-2l175.7,36.1L484,355.8"/>
	<path class="st2" d="M336.1,884.1l36.7-419.7"/>
</g>
</svg>
